<svg xmlns="http://www.w3.org/2000/svg" width="148.984" height="46" viewBox="0 0 148.984 46">
  <g id="logo" transform="translate(-120 -36)">
    <path id="name" d="M6.016-12.672A3.63,3.63,0,0,1,6.064-11.6c-.032.416-.08.832-.144,1.392a24.985,24.985,0,0,1-3.1-.016c.016.288.032.544.064.736.016.16.064.192.208.208a4.142,4.142,0,0,0,.752.048c.432,0,1.056-.016,1.968-.064-.048.8-.1,1.648-.128,2.56C3.216-5.552,1.888-3.6,1.888-1.968c0,.88.384,1.632,1.44,1.632A5.469,5.469,0,0,0,6.336-1.7a6.062,6.062,0,0,0,.272.768c.048.112.112.112.208.08a2.732,2.732,0,0,0,.592-.32c.112-.08.128-.128.08-.24a8.585,8.585,0,0,1-.336-.9,17.456,17.456,0,0,0,3.1-4.384A2.844,2.844,0,0,1,13.008-3.9,2.939,2.939,0,0,1,11.632-1.36,9.2,9.2,0,0,1,8.512-.176a1.575,1.575,0,0,1,.56.592.283.283,0,0,0,.384.176c2.4-.56,4.64-1.84,4.64-4.352,0-1.84-1.28-3.344-3.568-3.68.08-.16.16-.272.24-.432.064-.112.176-.208.176-.32,0-.08-.064-.16-.192-.256a3.9,3.9,0,0,0-.9-.432,3.6,3.6,0,0,1-.288,1.344,12.052,12.052,0,0,0-2.912.448c.016-.768.08-1.44.16-2.288a33.142,33.142,0,0,0,4.688-.7.181.181,0,0,0,.176-.192,2.532,2.532,0,0,0-.08-.608c-.032-.1-.08-.144-.192-.112A32.484,32.484,0,0,1,6.96-10.3c.048-.368.1-.672.16-1.024a1.485,1.485,0,0,1,.208-.64.346.346,0,0,0,.1-.224c0-.08-.064-.144-.16-.192A4.222,4.222,0,0,0,6.016-12.672ZM6.88-3.28a16.729,16.729,0,0,1-.288-2.96,8.56,8.56,0,0,1,2.7-.5A15.982,15.982,0,0,1,6.88-3.28ZM5.7-5.808a19.984,19.984,0,0,0,.352,3.2A4.647,4.647,0,0,1,3.584-1.36a.66.66,0,0,1-.7-.752C2.88-3.248,3.792-4.752,5.7-5.808ZM21.5-9.12a20.335,20.335,0,0,1-3.328.128,4.133,4.133,0,0,0,.1.752c.032.16.1.24.3.24A21.975,21.975,0,0,0,21.5-8.176c0,1.1,0,2.288.016,3.424-.976.56-1.888,1.072-2.592,1.408a7.448,7.448,0,0,1-1.552.56,5.979,5.979,0,0,0,.5.976c.08.112.144.176.24.176a.373.373,0,0,0,.224-.112c.144-.1.3-.208.544-.352A12.038,12.038,0,0,1,21.2-.3c.384.416.464.576.608.576A3.466,3.466,0,0,0,22.48.16c.16-.048.176-.144.176-.368,0-.256-.064-.768-.1-1.52-.048-.992-.08-1.872-.08-2.448A9.371,9.371,0,0,1,26.464-5.52c1.424,0,2.208.768,2.208,1.936,0,1.328-.976,1.968-2.256,1.968A4.024,4.024,0,0,1,24.7-1.952a2.13,2.13,0,0,1,.256.736c.016.256.064.368.224.416a4.127,4.127,0,0,0,1.28.192c2.016,0,3.328-1.008,3.328-2.944a2.828,2.828,0,0,0-3.136-2.832A9.737,9.737,0,0,0,22.48-5.168c-.016-1.056-.016-2.112.016-3.152a15.776,15.776,0,0,0,2.5-.656c.128-.048.176-.064.176-.208a4.774,4.774,0,0,0-.064-.672c-.016-.144-.08-.16-.208-.112a15.15,15.15,0,0,1-2.352.672c.016-.512.032-.96.064-1.392A1.691,1.691,0,0,1,22.8-11.5a.426.426,0,0,0,.08-.208.25.25,0,0,0-.192-.24,6.1,6.1,0,0,0-1.28-.24,6.958,6.958,0,0,1,.128,1.5C21.536-10.144,21.52-9.7,21.5-9.12Zm.016,5.392c.048.88.064,1.584.1,2.272,0,.144-.048.176-.16.112-.672-.368-1.216-.7-1.984-1.152C20.24-2.96,20.784-3.312,21.52-3.728Zm5.392-5.856A5.614,5.614,0,0,1,29.968-7.84a.127.127,0,0,0,.208,0,4.848,4.848,0,0,0,.512-.656.137.137,0,0,0,0-.208,5.717,5.717,0,0,0-3.168-1.68c-.112-.016-.16.016-.224.128A5.6,5.6,0,0,0,26.912-9.584Zm14.16,3.6c-2.016.944-2.784,2.368-2.784,3.6C38.288-.432,39.9.592,42.416.848c.368.032.7.064.992.064.176,0,.224-.048.24-.208.032-.192.08-.544.1-.768,0-.144-.048-.192-.176-.192C41.392-.272,39.28-.768,39.28-2.608c0-1.456,1.376-2.672,3.216-3.328a10.453,10.453,0,0,1,2.912-.56c.192,0,.256-.032.24-.16a4.349,4.349,0,0,0-.112-.816c-.032-.112-.1-.144-.256-.128A58.029,58.029,0,0,0,36.5-5.7l-.048-.048c1.888-1.472,3.728-3.008,5.824-4.9a2.318,2.318,0,0,1,.576-.368.321.321,0,0,0,.208-.272.5.5,0,0,0-.128-.3,3.27,3.27,0,0,0-.576-.576.385.385,0,0,0-.272-.128.467.467,0,0,0-.24.1,1.4,1.4,0,0,1-.608.208c-1.536.24-2.912.448-4.192.576a8.17,8.17,0,0,1-1.408-.016,6.5,6.5,0,0,0,.368.992c.08.144.144.24.24.24a2.292,2.292,0,0,0,.464-.128c.16-.032.352-.08.576-.128,1.264-.24,2.608-.464,3.968-.688-2.128,2.1-3.68,3.488-5.28,4.8a6.306,6.306,0,0,1-1.792,1.1,2.952,2.952,0,0,1-.64.192,7.25,7.25,0,0,0,.384.832c.064.112.144.192.208.192a5.217,5.217,0,0,0,.528-.208,51.863,51.863,0,0,1,6.416-1.792Zm2.592-4.88A6.908,6.908,0,0,1,45.52-8.816a.128.128,0,0,0,.208.032l.464-.384a.116.116,0,0,0,.032-.176,7.764,7.764,0,0,0-1.808-1.936.124.124,0,0,0-.16-.016Zm1.408-1.072a7.642,7.642,0,0,1,1.84,2c.064.1.128.1.192.032l.432-.384c.08-.064.1-.112.048-.192a9.2,9.2,0,0,0-1.824-1.872c-.064-.048-.112-.032-.176.016Zm7.568-.08a10.462,10.462,0,0,1,2.96,1.952c.1.1.176.1.256,0a4.942,4.942,0,0,0,.528-.688c.064-.112.064-.144-.032-.224A9.5,9.5,0,0,0,53.424-12.8a.168.168,0,0,0-.224.048A4.576,4.576,0,0,0,52.64-12.016ZM51.376-9.328A9.554,9.554,0,0,1,51.248-8a47.149,47.149,0,0,0-.464,5.024c0,.144.032.176.128.224a6.22,6.22,0,0,0,.656.288c.128.048.176.048.256-.08a3.974,3.974,0,0,1,.7-.944,7.184,7.184,0,0,1,4.752-2.5c1.7,0,2.416.88,2.416,2.016a2.864,2.864,0,0,1-1.92,2.64,12.88,12.88,0,0,1-4.352.992,2.554,2.554,0,0,1,.72.784c.08.176.16.176.416.144A11.865,11.865,0,0,0,58.448-.464a3.675,3.675,0,0,0,2.4-3.408c0-1.808-1.264-3.056-3.44-3.056a7.6,7.6,0,0,0-5.584,2.88,29.039,29.039,0,0,1,.464-3.664,2.068,2.068,0,0,1,.24-.752c.112-.144.1-.288-.1-.4A5.154,5.154,0,0,0,51.376-9.328ZM75.824-2.56c1.536,0,2.048.032,2.144.032.112,0,.128-.016.128-.128v-.608c0-.112-.016-.128-.128-.128-.1,0-.608.032-2.144.032H71.68a1.322,1.322,0,0,1,.08-.544.854.854,0,0,0,.08-.288c0-.064-.064-.128-.192-.16a8.025,8.025,0,0,0-.992-.1,7.372,7.372,0,0,1,.08,1.088h-3.92c-1.536,0-2.048-.032-2.144-.032-.112,0-.128.016-.128.128v.608c0,.112.016.128.128.128.1,0,.608-.032,2.144-.032h3.1A13.641,13.641,0,0,1,64.1.08a2.187,2.187,0,0,1,.4.528c.144.272.176.288.48.208a13.537,13.537,0,0,0,5.792-3.1c-.016,2.208-.1,3.04-.1,3.312,0,.112.016.128.128.128h.8c.112,0,.128-.016.128-.128,0-.272-.064-1.152-.08-3.36A13.758,13.758,0,0,0,77.712.784c.3.08.32.08.48-.208a3.037,3.037,0,0,1,.416-.592A14.894,14.894,0,0,1,72.5-2.56Zm-2.24-5.328c0-.976.032-1.328.032-1.408,0-.112-.016-.128-.128-.128-.1,0-.432.032-1.488.032h-.816c.08-.16.16-.3.224-.464a.933.933,0,0,1,.208-.336.244.244,0,0,0,.112-.192c0-.08-.064-.128-.192-.16a5.243,5.243,0,0,0-.848-.176,3.56,3.56,0,0,1-.144.72,4.378,4.378,0,0,1-.24.608c-.928,0-1.248-.032-1.328-.032-.112,0-.128.016-.128.128,0,.1.032.432.032,1.408v1.76c0,.96-.032,1.312-.032,1.392,0,.112.016.128.128.128.1,0,.416-.032,1.5-.032H72c1.056,0,1.392.032,1.488.032.112,0,.128-.016.128-.128,0-.08-.032-.432-.032-1.392Zm-.848,2.56H69.728V-6.72h3.008Zm0-2.08H69.728V-8.7h3.008Zm5.616-4.448c0-.112-.016-.128-.128-.128-.08,0-.624.032-2.208.032H73.824a2.4,2.4,0,0,1,.08-.816.491.491,0,0,0,.08-.208c0-.08-.08-.128-.176-.144-.256-.032-.608-.064-.976-.08a7.228,7.228,0,0,1,.112,1.248H69.536a2.459,2.459,0,0,1,.08-.832.491.491,0,0,0,.08-.208c0-.08-.064-.112-.176-.128a7.465,7.465,0,0,0-.96-.1,5.8,5.8,0,0,1,.1,1.264H66.672c-1.552,0-2.064-.032-2.16-.032-.112,0-.128.016-.128.128v.624c0,.112.016.128.128.128.1,0,.608-.032,2.16-.032h1.984c-.016.592-.032.832-.032.912,0,.112.016.128.128.128h.688c.112,0,.128-.016.128-.128,0-.064-.032-.32-.032-.912h3.408c-.016.608-.032.848-.032.928,0,.112.016.128.128.128h.688c.112,0,.128-.016.128-.128,0-.08-.032-.32-.032-.928h2.192c1.584,0,2.128.032,2.208.032.112,0,.128-.016.128-.128ZM68.08-6.56c-.032-.176-.08-.384-.1-.576A15.685,15.685,0,0,1,65.392-5.68a4.369,4.369,0,0,1-.944.32,8.378,8.378,0,0,0,.416.848c.064.1.128.144.176.144a.274.274,0,0,0,.192-.128,2,2,0,0,1,.576-.352,18.514,18.514,0,0,0,2.1-1.216C68.16-6.24,68.16-6.24,68.08-6.56Zm9.776,1.536c.1-.144.1-.176,0-.24A15.781,15.781,0,0,0,74.9-7.072c-.1-.048-.128-.032-.224.112l-.272.384c-.1.128-.1.176.016.224a15.706,15.706,0,0,1,2.912,1.888c.1.08.128.064.224-.1ZM77.6-9.3a.272.272,0,0,0-.1-.208,6.267,6.267,0,0,0-.672-.576,2.128,2.128,0,0,1-.4.48,8.821,8.821,0,0,1-2.08,1.424,1.541,1.541,0,0,1,.384.4c.1.16.16.224.224.224a.62.62,0,0,0,.224-.1A15.443,15.443,0,0,0,77.072-8.9a1.437,1.437,0,0,1,.352-.224C77.536-9.168,77.6-9.216,77.6-9.3ZM64.912-9.44c-.112.128-.112.16,0,.224A13.692,13.692,0,0,1,66.96-7.648c.1.08.128.064.24-.08l.352-.432c.112-.128.1-.16.016-.24a15.763,15.763,0,0,0-2.1-1.472c-.128-.064-.16-.064-.24.032ZM82.976-7.232c.016-.5.016-1.008.016-1.52v-.064h7.376c1.632,0,2.192.032,2.272.032.112,0,.128-.016.128-.128,0-.1-.032-.336-.032-1.152v-1.184c0-.816.032-1.056.032-1.136,0-.112-.016-.128-.128-.128-.08,0-.64.032-2.272.032H84.416c-1.616,0-2.192-.032-2.272-.032-.128,0-.144.016-.144.128,0,.08.032.96.032,3.072A31.827,31.827,0,0,1,81.76-4.5,9.324,9.324,0,0,1,79.952.032a2.334,2.334,0,0,1,.624.48c.1.112.16.16.208.16s.08-.064.16-.192A10.336,10.336,0,0,0,82.7-4.176a21.7,21.7,0,0,0,.24-2.208H92.976a38.416,38.416,0,0,1-.384,5.36A1.084,1.084,0,0,1,91.392,0a13.272,13.272,0,0,1-1.7-.112,1.978,1.978,0,0,1,.24.752c.032.256.032.256.3.256.4.016.9.032,1.152.032A1.844,1.844,0,0,0,93.52-.688a33.875,33.875,0,0,0,.416-5.264c.016-.416.016-.784.048-1.168,0-.112-.032-.144-.144-.144-.1,0-.656.032-2.288.032Zm8.816-2.432h-8.8v-1.952h8.8ZM90-3.808c0-.672.032-.992.032-1.088s-.016-.112-.128-.112c-.08,0-.464.032-1.632.032H86.448c-1.184,0-1.552-.032-1.648-.032-.112,0-.128.016-.128.112s.032.432.032,1.36v.912C84.7-.7,84.672-.4,84.672-.3c0,.112.016.128.128.128h.672c.112,0,.128-.016.128-.128V-1.312h3.52v.64c0,.112.016.128.128.128H89.9c.112,0,.128-.016.128-.128,0-.08-.032-.384-.032-2.176ZM89.12-2.08H85.6V-4.192h3.52Z" transform="translate(175 59)" fill="#1593ef"/>
    <path id="name_en" d="M.165,0,3.432-7.81h.627L7.326,0H6.5L5.489-2.442H1.98L.979,0ZM3.751-6.908,2.145-3.047H5.313ZM10.692.11a2.755,2.755,0,0,1-1.15-.236,2.8,2.8,0,0,1-.9-.643,2.92,2.92,0,0,1-.589-.946,3.106,3.106,0,0,1-.209-1.133,3.065,3.065,0,0,1,.214-1.144,3,3,0,0,1,.594-.946,2.866,2.866,0,0,1,.9-.649,2.676,2.676,0,0,1,1.139-.242,2.676,2.676,0,0,1,1.138.242,2.866,2.866,0,0,1,.9.649,3,3,0,0,1,.594.946,3.065,3.065,0,0,1,.215,1.144,3.036,3.036,0,0,1-.215,1.133,3,3,0,0,1-.594.946,2.8,2.8,0,0,1-.9.643A2.728,2.728,0,0,1,10.692.11ZM8.613-2.838a2.465,2.465,0,0,0,.16.9,2.347,2.347,0,0,0,.44.726,2.014,2.014,0,0,0,.66.489,1.9,1.9,0,0,0,.809.176,1.85,1.85,0,0,0,.809-.182,2.147,2.147,0,0,0,.666-.5,2.359,2.359,0,0,0,.451-.732,2.435,2.435,0,0,0,.165-.9,2.447,2.447,0,0,0-.165-.9,2.343,2.343,0,0,0-.451-.737,2.168,2.168,0,0,0-.66-.5,1.815,1.815,0,0,0-.8-.181,1.85,1.85,0,0,0-.809.181,2.046,2.046,0,0,0-.66.5,2.472,2.472,0,0,0-.446.742A2.478,2.478,0,0,0,8.613-2.838ZM14.256-.506,18.128-5.17H14.344v-.561h4.6v.506L15.092-.561h3.85V0H14.256ZM22.572.11a2.755,2.755,0,0,1-1.149-.236,2.8,2.8,0,0,1-.9-.643,2.92,2.92,0,0,1-.588-.946,3.106,3.106,0,0,1-.209-1.133,3.065,3.065,0,0,1,.214-1.144,3,3,0,0,1,.594-.946,2.866,2.866,0,0,1,.9-.649,2.676,2.676,0,0,1,1.139-.242,2.676,2.676,0,0,1,1.139.242,2.866,2.866,0,0,1,.9.649,3,3,0,0,1,.594.946,3.065,3.065,0,0,1,.215,1.144,3.036,3.036,0,0,1-.215,1.133,3,3,0,0,1-.594.946,2.8,2.8,0,0,1-.9.643A2.728,2.728,0,0,1,22.572.11ZM20.493-2.838a2.465,2.465,0,0,0,.16.9,2.347,2.347,0,0,0,.44.726,2.014,2.014,0,0,0,.66.489,1.9,1.9,0,0,0,.809.176,1.85,1.85,0,0,0,.809-.182,2.147,2.147,0,0,0,.665-.5,2.359,2.359,0,0,0,.451-.732,2.435,2.435,0,0,0,.165-.9,2.447,2.447,0,0,0-.165-.9,2.343,2.343,0,0,0-.451-.737,2.168,2.168,0,0,0-.66-.5,1.815,1.815,0,0,0-.8-.181,1.85,1.85,0,0,0-.809.181,2.046,2.046,0,0,0-.66.5,2.472,2.472,0,0,0-.445.742A2.478,2.478,0,0,0,20.493-2.838Zm9.141-2.233a2.353,2.353,0,0,0-1.32.418,2.108,2.108,0,0,0-.792,1.089V0h-.748V-5.731h.7v1.375a3.011,3.011,0,0,1,.781-1.007,1.606,1.606,0,0,1,1.045-.4h.187a.754.754,0,0,1,.143.011ZM32.175.11a2.251,2.251,0,0,1-.8-.137,1.863,1.863,0,0,1-.622-.38,1.733,1.733,0,0,1-.4-.561,1.622,1.622,0,0,1-.143-.671,1.486,1.486,0,0,1,.176-.72,1.659,1.659,0,0,1,.5-.556,2.417,2.417,0,0,1,.764-.358,3.6,3.6,0,0,1,.984-.126,5.225,5.225,0,0,1,.88.077,3.862,3.862,0,0,1,.8.22v-.517a1.651,1.651,0,0,0-.434-1.2A1.561,1.561,0,0,0,32.7-5.269a2.536,2.536,0,0,0-.918.176,4.405,4.405,0,0,0-.93.506l-.264-.5a4.973,4.973,0,0,1,1.089-.561,3.271,3.271,0,0,1,1.1-.187,2.268,2.268,0,0,1,1.661.605,2.237,2.237,0,0,1,.616,1.672V-.968q0,.308.264.308V0q-.088.011-.165.016t-.132.006a.667.667,0,0,1-.4-.132.514.514,0,0,1-.2-.4L34.4-.957a2.492,2.492,0,0,1-.985.786A2.938,2.938,0,0,1,32.175.11Zm.187-.572a2.434,2.434,0,0,0,.985-.215,1.924,1.924,0,0,0,.776-.588,1.162,1.162,0,0,0,.132-.214.5.5,0,0,0,.055-.215v-.935a4.551,4.551,0,0,0-.781-.22,4.257,4.257,0,0,0-.792-.077,2.36,2.36,0,0,0-1.3.325,1.015,1.015,0,0,0-.5.9,1.2,1.2,0,0,0,.088.451,1.137,1.137,0,0,0,.269.4,1.411,1.411,0,0,0,.446.286A1.625,1.625,0,0,0,32.362-.462ZM42.7.11a2.291,2.291,0,0,1-1.287-.368,2.91,2.91,0,0,1-.9-.93V2.343h-.748V-5.731h.671V-4.62a2.778,2.778,0,0,1,.913-.875A2.336,2.336,0,0,1,42.57-5.83a2.435,2.435,0,0,1,1.094.247,2.779,2.779,0,0,1,.863.66,3.064,3.064,0,0,1,.567.951,3.12,3.12,0,0,1,.2,1.111,3.465,3.465,0,0,1-.187,1.144,2.919,2.919,0,0,1-.533.946,2.565,2.565,0,0,1-.825.643A2.338,2.338,0,0,1,42.7.11Zm-.209-.66a1.759,1.759,0,0,0,.836-.2,2.114,2.114,0,0,0,.644-.523,2.345,2.345,0,0,0,.412-.737,2.585,2.585,0,0,0,.143-.852,2.375,2.375,0,0,0-.165-.88,2.429,2.429,0,0,0-.451-.737,2.141,2.141,0,0,0-.677-.506,1.923,1.923,0,0,0-.841-.187,1.688,1.688,0,0,0-.594.115,2.614,2.614,0,0,0-.583.308,2.026,2.026,0,0,0-.468.451,1.215,1.215,0,0,0-.236.545v1.76a2.63,2.63,0,0,0,.336.572,2.367,2.367,0,0,0,.462.456,2.184,2.184,0,0,0,.561.3A1.805,1.805,0,0,0,42.493-.55ZM51.48,0h-.748V-3.2A2.583,2.583,0,0,0,50.4-4.664a1.121,1.121,0,0,0-.984-.484,1.678,1.678,0,0,0-.632.126,2.342,2.342,0,0,0-.589.346,2.381,2.381,0,0,0-.479.517,2.188,2.188,0,0,0-.3.649V0h-.748V-8.03h.748v3.6a2.68,2.68,0,0,1,.957-1.023,2.425,2.425,0,0,1,1.3-.374,1.8,1.8,0,0,1,.841.182,1.491,1.491,0,0,1,.561.506,2.279,2.279,0,0,1,.313.781,4.755,4.755,0,0,1,.1,1.006Zm3.2.11a2.251,2.251,0,0,1-.8-.137,1.863,1.863,0,0,1-.622-.38,1.733,1.733,0,0,1-.4-.561,1.622,1.622,0,0,1-.143-.671,1.486,1.486,0,0,1,.176-.72,1.659,1.659,0,0,1,.495-.556,2.417,2.417,0,0,1,.764-.358,3.6,3.6,0,0,1,.985-.126,5.225,5.225,0,0,1,.88.077,3.862,3.862,0,0,1,.8.22v-.517a1.651,1.651,0,0,0-.435-1.2,1.561,1.561,0,0,0-1.172-.446,2.536,2.536,0,0,0-.918.176,4.405,4.405,0,0,0-.93.506l-.264-.5a4.973,4.973,0,0,1,1.089-.561,3.271,3.271,0,0,1,1.1-.187,2.268,2.268,0,0,1,1.661.605,2.237,2.237,0,0,1,.616,1.672V-.968q0,.308.264.308V0q-.088.011-.165.016T57.53.022a.667.667,0,0,1-.4-.132.514.514,0,0,1-.2-.4L56.9-.957a2.492,2.492,0,0,1-.985.786A2.938,2.938,0,0,1,54.681.11Zm.187-.572a2.434,2.434,0,0,0,.985-.215,1.924,1.924,0,0,0,.776-.588,1.162,1.162,0,0,0,.132-.214.5.5,0,0,0,.055-.215v-.935a4.551,4.551,0,0,0-.781-.22,4.257,4.257,0,0,0-.792-.077,2.36,2.36,0,0,0-1.3.325,1.015,1.015,0,0,0-.5.9,1.2,1.2,0,0,0,.088.451,1.137,1.137,0,0,0,.27.4,1.411,1.411,0,0,0,.445.286A1.625,1.625,0,0,0,54.868-.462Zm7.315-4.609a2.353,2.353,0,0,0-1.32.418,2.108,2.108,0,0,0-.792,1.089V0h-.748V-5.731h.7v1.375a3.011,3.011,0,0,1,.781-1.007,1.606,1.606,0,0,1,1.045-.4h.187a.754.754,0,0,1,.143.011ZM71.841,0h-.748V-3.2a2.72,2.72,0,0,0-.313-1.474,1.064,1.064,0,0,0-.951-.473,1.6,1.6,0,0,0-.622.121,1.911,1.911,0,0,0-.539.341,2.338,2.338,0,0,0-.435.522,2.517,2.517,0,0,0-.286.666V0H67.2V-3.2a2.751,2.751,0,0,0-.308-1.485,1.058,1.058,0,0,0-.946-.462A1.687,1.687,0,0,0,64.79-4.7a2.511,2.511,0,0,0-.726,1.188V0h-.748V-5.731H64v1.3a2.709,2.709,0,0,1,.924-1.028,2.288,2.288,0,0,1,1.265-.369,1.649,1.649,0,0,1,1.166.407,1.709,1.709,0,0,1,.528,1.067A2.456,2.456,0,0,1,70.1-5.83a1.721,1.721,0,0,1,.809.176,1.387,1.387,0,0,1,.539.5,2.344,2.344,0,0,1,.3.781,5.086,5.086,0,0,1,.094,1.017Zm3.2.11a2.251,2.251,0,0,1-.8-.137,1.863,1.863,0,0,1-.621-.38,1.732,1.732,0,0,1-.4-.561,1.622,1.622,0,0,1-.143-.671,1.487,1.487,0,0,1,.176-.72,1.659,1.659,0,0,1,.5-.556,2.417,2.417,0,0,1,.764-.358,3.6,3.6,0,0,1,.985-.126,5.225,5.225,0,0,1,.88.077,3.862,3.862,0,0,1,.8.22v-.517a1.651,1.651,0,0,0-.435-1.2,1.561,1.561,0,0,0-1.172-.446,2.536,2.536,0,0,0-.918.176,4.4,4.4,0,0,0-.93.506l-.264-.5a4.973,4.973,0,0,1,1.089-.561,3.271,3.271,0,0,1,1.1-.187,2.268,2.268,0,0,1,1.661.605,2.237,2.237,0,0,1,.616,1.672V-.968q0,.308.264.308V0q-.088.011-.165.016t-.132.006a.667.667,0,0,1-.4-.132.514.514,0,0,1-.2-.4l-.022-.451a2.492,2.492,0,0,1-.984.786A2.938,2.938,0,0,1,75.042.11Zm.187-.572a2.434,2.434,0,0,0,.984-.215,1.924,1.924,0,0,0,.775-.588,1.161,1.161,0,0,0,.132-.214.5.5,0,0,0,.055-.215v-.935a4.551,4.551,0,0,0-.781-.22,4.257,4.257,0,0,0-.792-.077,2.36,2.36,0,0,0-1.3.325,1.015,1.015,0,0,0-.5.9,1.2,1.2,0,0,0,.088.451,1.137,1.137,0,0,0,.27.4,1.411,1.411,0,0,0,.445.286A1.625,1.625,0,0,0,75.229-.462Zm4.081-2.42a3.136,3.136,0,0,1,.209-1.144,2.857,2.857,0,0,1,.589-.94,2.749,2.749,0,0,1,.908-.633,2.878,2.878,0,0,1,1.166-.231,2.674,2.674,0,0,1,1.419.369,2.367,2.367,0,0,1,.913,1l-.726.231a1.753,1.753,0,0,0-.671-.687,1.88,1.88,0,0,0-.957-.248,1.924,1.924,0,0,0-.82.176,2.09,2.09,0,0,0-.66.478,2.2,2.2,0,0,0-.44.72,2.541,2.541,0,0,0-.16.913,2.521,2.521,0,0,0,.165.913,2.329,2.329,0,0,0,.451.743,2.147,2.147,0,0,0,.665.5,1.85,1.85,0,0,0,.809.182,1.973,1.973,0,0,0,.545-.077,2.1,2.1,0,0,0,.5-.215,1.8,1.8,0,0,0,.4-.313,1.019,1.019,0,0,0,.231-.374l.726.22a1.875,1.875,0,0,1-.352.567,2.428,2.428,0,0,1-.545.451,2.672,2.672,0,0,1-.693.3,2.949,2.949,0,0,1-.787.1,2.793,2.793,0,0,1-1.155-.236,2.8,2.8,0,0,1-.913-.649,3.014,3.014,0,0,1-.6-.951A3.1,3.1,0,0,1,79.31-2.882Zm6.776,4.653q.055.011.11.016t.11.006a1.385,1.385,0,0,0,.237-.022,1,1,0,0,0,.182-.044.315.315,0,0,0,.115-.094,1.463,1.463,0,0,0,.154-.253q.094-.181.237-.506T87.593,0L85.1-5.731h.781L88-.693l1.958-5.038h.715L87.692,1.661a1.323,1.323,0,0,1-.445.605,1.348,1.348,0,0,1-.786.2,1.917,1.917,0,0,1-.374-.033Z" transform="translate(178 74)" fill="#555"/>
    <g id="icon">
      <rect id="box" width="46" height="46" rx="10" transform="translate(120 36)" fill="#1593ef"/>
      <path id="icon-2" data-name="icon" d="M26.558,0H6.509A6.461,6.461,0,0,0,0,6.554a6.461,6.461,0,0,0,6.509,6.554H26.558a6.461,6.461,0,0,0,6.508-6.554A6.46,6.46,0,0,0,26.558,0Zm0,11.566H16.619V1.542H26.56a4.92,4.92,0,0,1,4.8,5.012A4.92,4.92,0,0,1,26.56,11.566Z" transform="translate(126.76 66.176) rotate(-45)" fill="#fff"/>
    </g>
  </g>
</svg>
